#define 06ecd1a549b84263c584f185ccd297c0ATvvG2Zy0isP7NPr_width 16
#define 06ecd1a549b84263c584f185ccd297c0ATvvG2Zy0isP7NPr_height 16
static char 06ecd1a549b84263c584f185ccd297c0ATvvG2Zy0isP7NPr_bits[] = {
  0xFF, 0xFF, 0x09, 0x90, 0x09, 0x90, 0x0F, 0xF0, 0x4F, 0xF0, 0xC9, 0x90, 
  0xC9, 0x91, 0xCF, 0xF3, 0xCF, 0xF3, 0xC9, 0x91, 0xC9, 0x90, 0x4F, 0xF0, 
  0x0F, 0xF0, 0x09, 0x90, 0x09, 0x90, 0xFF, 0xFF, };
